<svg version="1.1" id="Layer_1" xmlns="http://www.w3.org/2000/svg" xmlns:xlink="http://www.w3.org/1999/xlink" x="0px" y="0px"
	 width="100%" viewBox="0 0 1200 272" enable-background="new 0 0 1200 272" xml:space="preserve">
<path fill="#000000" opacity="1.000000" stroke="none" 
	d="
M888.000000,273.000000 
	C592.000000,273.000000 296.500000,273.000000 1.000000,273.000000 
	C1.000000,182.333328 1.000000,91.666664 1.000000,1.000000 
	C401.000000,1.000000 801.000000,1.000000 1201.000000,1.000000 
	C1201.000000,91.666664 1201.000000,182.333328 1201.000000,273.000000 
	C1096.833374,273.000000 992.666687,273.000000 888.000000,273.000000 
M633.963928,185.481049 
	C661.618713,158.835327 658.484497,114.281479 627.731812,93.457588 
	C598.898132,73.933205 541.419556,76.582932 524.273865,123.166367 
	C518.104492,104.079842 506.461243,90.388924 487.207184,84.755562 
	C468.614441,79.315689 450.831055,80.728699 435.000732,94.999405 
	C435.000732,90.687233 435.000732,87.441040 435.000732,84.230713 
	C422.066467,84.230713 409.473145,84.230713 396.777954,84.230713 
	C396.777954,136.701996 396.777954,188.938156 396.777954,241.376678 
	C410.313568,241.376678 423.556366,241.376678 437.222351,241.376678 
	C437.222351,224.402420 437.222351,207.679260 437.222351,190.179535 
	C453.043976,203.501556 470.418304,204.619980 488.470337,198.873001 
	C507.080841,192.948227 518.289185,179.351761 524.429321,160.490723 
	C529.497009,174.614182 537.905151,185.005615 550.112793,192.268600 
	C575.587158,207.424667 610.534485,204.774368 633.963928,185.481049 
M161.935776,193.626633 
	C178.933914,202.471786 196.926666,204.319778 215.292099,199.820023 
	C264.188873,187.839661 270.779938,139.373093 254.515732,111.891228 
	C243.771835,93.737061 226.918259,84.801575 206.499573,82.694893 
	C179.588638,79.918388 156.319397,86.787773 140.145584,110.263535 
	C139.771713,110.806198 139.619522,111.501564 139.240479,112.427147 
	C129.590164,96.090721 119.209961,87.893105 103.615776,84.178368 
	C88.523865,80.583267 73.465584,81.128632 58.819775,86.194168 
	C10.051239,103.061729 9.029055,159.935715 37.101818,185.253220 
	C62.003517,207.710892 119.449265,211.029602 139.108017,172.048203 
	C144.827652,181.091324 152.035599,188.283096 161.935776,193.626633 
M684.468384,83.996124 
	C674.847290,83.996124 665.226196,83.996124 655.433838,83.996124 
	C655.433838,122.848061 655.433838,161.243866 655.433838,199.821594 
	C661.307556,199.821594 666.924622,199.821594 672.639038,199.821594 
	C679.423767,178.687454 685.985657,157.566528 693.132202,136.645325 
	C694.347412,133.087906 697.497009,129.435638 700.747131,127.475754 
	C709.265015,122.339104 718.310181,118.070045 727.189270,113.541695 
	C732.358459,110.905434 735.088928,111.746773 737.783875,116.863876 
	C742.350098,125.534363 747.241272,134.079788 751.063538,143.073990 
	C752.668091,146.849777 752.839233,151.829819 751.996948,155.919434 
	C750.505371,163.161438 747.739868,170.140915 745.509705,177.230942 
	C743.163269,184.690567 740.819397,192.151031 738.423462,199.773209 
	C752.291199,199.773209 765.403259,199.773209 778.976990,199.773209 
	C778.976990,196.681091 778.976990,193.798447 778.976990,190.525909 
	C800.490112,200.807846 822.606995,203.838684 845.544312,200.909988 
	C857.630859,199.366714 868.802612,195.454834 877.954712,186.863281 
	C892.042175,173.638504 893.209534,143.135483 866.261230,133.703430 
	C863.132629,132.608414 859.908020,131.702972 856.659424,131.051117 
	C846.224915,128.957428 835.695068,127.289375 825.352783,124.824303 
	C823.038574,124.272713 819.783630,121.149254 819.776733,119.199982 
	C819.769409,117.090019 822.668640,114.061012 824.997681,113.066971 
	C828.398438,111.615540 832.406311,111.224716 836.182068,111.080147 
	C848.548584,110.606636 860.198547,113.647522 871.366821,119.536423 
	C875.526306,110.082550 879.501160,101.048241 883.539795,91.868919 
	C881.942871,91.060326 880.939270,90.492065 879.887756,90.033485 
	C878.213928,89.303429 876.539795,88.552025 874.810974,87.973320 
	C858.779968,82.606888 842.358215,80.883583 825.553650,82.744240 
	C813.408325,84.089012 802.034119,87.514175 792.657288,95.710365 
	C782.256287,104.801849 779.150696,116.436348 782.146667,129.649643 
	C784.910767,141.840439 793.707397,148.428055 804.984863,151.770126 
	C811.806946,153.791840 818.978455,154.632675 825.991333,156.012787 
	C832.508301,157.295303 839.086548,158.349319 845.495117,160.043579 
	C847.141357,160.478775 849.295959,162.922211 849.335449,164.490387 
	C849.382812,166.375320 847.746338,168.650787 846.222229,170.115479 
	C845.030457,171.260803 842.925659,171.835892 841.178894,171.952896 
	C835.880066,172.307816 830.535400,172.697708 825.249573,172.384186 
	C813.214600,171.670334 801.859924,168.269577 791.025452,162.154007 
	C787.166260,170.874573 783.457825,179.254272 779.749451,187.633972 
	C778.900635,185.835876 778.902832,184.246094 778.900269,182.656296 
	C778.872192,165.157150 779.180115,147.649170 778.722107,130.161270 
	C778.242615,111.852623 772.432129,96.008362 754.786987,87.222832 
	C743.010132,81.359123 730.486450,80.773773 717.742371,83.504036 
	C708.867065,85.405472 701.254761,89.833313 693.805908,96.503807 
	C693.805908,91.628906 693.805908,87.886307 693.805908,84.238609 
	C693.093079,84.117035 692.776001,84.018250 692.458191,84.015877 
	C690.125122,83.998451 687.791870,84.000328 684.468384,83.996124 
M301.762207,200.931015 
	C318.861237,203.794434 334.449005,200.973602 348.078613,187.869019 
	C348.078613,192.421860 348.078613,196.116653 348.078613,199.634460 
	C361.335876,199.634460 374.051453,199.634460 386.548950,199.634460 
	C386.548950,160.890228 386.548950,122.514725 386.548950,84.244347 
	C372.934784,84.244347 359.671814,84.244347 346.063782,84.244347 
	C346.063782,86.114502 346.063934,87.742714 346.063751,89.370918 
	C346.061737,106.357315 346.229523,123.346527 345.948151,140.328293 
	C345.869629,145.067963 345.119324,150.019562 343.531250,154.464539 
	C340.263031,163.612350 331.415741,168.194473 320.993622,166.996887 
	C312.517303,166.022873 307.369446,160.507080 305.824677,150.437851 
	C305.322327,147.163589 305.090820,143.817978 305.077057,140.503586 
	C305.005157,123.184410 305.047943,105.864784 305.034149,88.545319 
	C305.032990,87.108574 304.907623,85.671936 304.847321,84.390961 
	C291.125671,84.390961 277.760040,84.390961 264.895874,84.390961 
	C264.895874,109.244431 264.068359,133.738754 265.134521,158.150345 
	C266.148834,181.374847 278.533508,194.963181 301.762207,200.931015 
M953.361511,88.151901 
	C948.738831,88.151901 944.116150,88.151901 939.276978,88.151901 
	C939.276978,98.522202 939.276978,108.425926 939.276978,118.813461 
	C944.880981,118.813461 950.282715,118.813461 956.181641,118.813461 
	C956.181641,146.168930 956.181641,173.044937 956.181641,199.719269 
	C969.968323,199.719269 983.231873,199.719269 996.882690,199.719269 
	C996.882690,172.693878 996.882690,145.949478 996.882690,118.689873 
	C1005.829712,118.689873 1014.397156,118.689873 1022.857544,118.689873 
	C1022.857544,108.257454 1022.857544,98.348274 1022.857544,88.152504 
	C1018.047424,88.152504 1013.574219,88.152504 1009.100952,88.152504 
	C1004.682678,88.152504 1000.264465,88.152504 995.859741,88.152504 
	C995.622192,82.158821 995.813477,76.822174 1000.494019,73.373222 
	C1007.282288,68.371078 1014.353394,70.982712 1021.431580,73.710037 
	C1024.787598,64.105225 1028.052246,54.762047 1031.486938,44.932510 
	C1015.424622,37.874989 999.483765,37.165966 983.478577,42.667465 
	C966.447998,48.521378 956.547241,63.560619 955.977478,82.794357 
	C955.924255,84.592834 954.901428,86.362595 953.361511,88.151901 
M1093.906128,118.697021 
	C1099.171387,118.697021 1104.436523,118.697021 1109.998413,118.697021 
	C1109.998413,126.299377 1109.989990,133.270248 1110.000732,140.241104 
	C1110.011475,147.240295 1109.903442,154.243118 1110.088989,161.237946 
	C1110.649658,182.367188 1121.921387,196.204803 1142.288940,200.522980 
	C1152.508301,202.689590 1162.835938,202.746948 1173.002930,200.094513 
	C1177.211548,198.996536 1181.247437,197.236420 1185.554932,195.708954 
	C1181.968140,185.583496 1178.714111,176.397720 1175.413452,167.080261 
	C1173.264404,167.942474 1171.483032,168.798050 1169.616821,169.382812 
	C1158.091919,172.994202 1150.921143,167.787781 1150.832275,155.764877 
	C1150.790405,150.099030 1150.823730,144.432617 1150.823486,138.766464 
	C1150.823242,132.172791 1150.823364,125.579132 1150.823364,118.652779 
	C1159.911621,118.652779 1168.350342,118.652779 1176.939575,118.652779 
	C1176.939575,108.389915 1176.939575,98.481850 1176.939575,88.048218 
	C1168.135132,88.048218 1159.572632,88.048218 1150.601685,88.048218 
	C1150.601685,77.776665 1150.601685,68.027115 1150.601685,58.261734 
	C1136.904297,58.261734 1123.640991,58.261734 1109.819580,58.261734 
	C1109.819580,68.346031 1109.819580,78.221138 1109.819580,88.377991 
	C1103.979980,88.377991 1098.699585,88.377991 1093.214722,88.377991 
	C1093.214722,98.476013 1093.214722,108.268143 1093.906128,118.697021 
M1078.992310,116.500000 
	C1078.992310,105.738518 1078.992310,94.977043 1078.992310,84.213425 
	C1065.154907,84.213425 1051.892944,84.213425 1038.411987,84.213425 
	C1038.411987,122.814735 1038.411987,161.199905 1038.411987,199.704620 
	C1052.027588,199.704620 1065.407227,199.704620 1078.736084,199.704620 
	C1078.854736,199.095016 1078.969116,198.781631 1078.969238,198.468201 
	C1078.982544,171.478806 1078.987061,144.489395 1078.992310,116.500000 
M898.968018,163.605560 
	C897.614868,168.800629 895.232605,173.972473 895.114807,179.195419 
	C894.836914,191.506500 905.087891,201.357300 917.590759,201.934143 
	C931.403198,202.571396 941.490662,194.161331 943.413269,180.405624 
	C945.125000,168.158859 937.543396,156.852097 925.386597,154.445969 
	C915.310974,152.451721 906.200806,154.516724 898.968018,163.605560 
M1082.932495,43.803307 
	C1078.151733,25.534643 1052.031494,24.339663 1041.403564,33.389626 
	C1033.422363,40.185863 1031.334595,51.599739 1036.810303,60.396107 
	C1042.772705,69.974342 1056.714355,73.969818 1068.859741,69.581001 
	C1079.371948,65.782326 1084.564941,56.636375 1082.932495,43.803307 
M734.229614,132.592010 
	C731.911987,128.276962 728.429626,126.220146 723.576843,127.676811 
	C719.091797,129.023102 716.590515,134.041168 717.900269,138.417130 
	C719.051025,142.261612 723.650330,145.166977 727.573547,144.527679 
	C732.598145,143.708893 735.325134,139.335602 734.229614,132.592010 
z"/>
<path fill="#FDFDFD" opacity="1.000000" stroke="none" 
	d="
M633.696899,185.714127 
	C610.534485,204.774368 575.587158,207.424667 550.112793,192.268600 
	C537.905151,185.005615 529.497009,174.614182 524.429321,160.490723 
	C518.289185,179.351761 507.080841,192.948227 488.470337,198.873001 
	C470.418304,204.619980 453.043976,203.501556 437.222351,190.179535 
	C437.222351,207.679260 437.222351,224.402420 437.222351,241.376678 
	C423.556366,241.376678 410.313568,241.376678 396.777954,241.376678 
	C396.777954,188.938156 396.777954,136.701996 396.777954,84.230713 
	C409.473145,84.230713 422.066467,84.230713 435.000732,84.230713 
	C435.000732,87.441040 435.000732,90.687233 435.000732,94.999405 
	C450.831055,80.728699 468.614441,79.315689 487.207184,84.755562 
	C506.461243,90.388924 518.104492,104.079842 524.273865,123.166367 
	C541.419556,76.582932 598.898132,73.933205 627.731812,93.457588 
	C658.484497,114.281479 661.618713,158.835327 633.696899,185.714127 
M601.467529,165.106140 
	C612.245544,156.366928 613.120789,144.702667 610.382385,132.472061 
	C607.792297,120.904427 598.329285,114.150726 586.686279,114.475525 
	C574.893372,114.804497 566.202698,121.892677 563.920654,133.607986 
	C563.105957,137.790451 562.786438,142.238754 563.218445,146.465805 
	C565.243286,166.280624 583.640747,175.507523 601.467529,165.106140 
M477.053131,163.599701 
	C485.658630,155.278580 486.487732,144.825287 484.422577,134.024628 
	C482.063812,121.688263 472.931000,114.459373 460.954498,114.470688 
	C448.850952,114.482124 439.660614,122.115379 437.353699,134.536804 
	C436.665131,138.244217 436.690643,142.165024 436.944397,145.950836 
	C437.588501,155.560135 441.637360,163.394882 450.766754,167.336441 
	C459.770233,171.223663 468.590118,170.400482 477.053131,163.599701 
z"/>
<path fill="#FDFDFD" opacity="1.000000" stroke="none" 
	d="
M161.628693,193.420074 
	C152.035599,188.283096 144.827652,181.091324 139.108017,172.048203 
	C119.449265,211.029602 62.003517,207.710892 37.101818,185.253220 
	C9.029055,159.935715 10.051239,103.061729 58.819775,86.194168 
	C73.465584,81.128632 88.523865,80.583267 103.615776,84.178368 
	C119.209961,87.893105 129.590164,96.090721 139.240479,112.427147 
	C139.619522,111.501564 139.771713,110.806198 140.145584,110.263535 
	C156.319397,86.787773 179.588638,79.918388 206.499573,82.694893 
	C226.918259,84.801575 243.771835,93.737061 254.515732,111.891228 
	C270.779938,139.373093 264.188873,187.839661 215.292099,199.820023 
	C196.926666,204.319778 178.933914,202.471786 161.628693,193.420074 
M63.916649,158.426041 
	C68.540031,165.494934 75.138565,169.089752 83.513870,169.474548 
	C95.217598,170.012299 102.842003,163.800522 108.018822,154.001236 
	C117.786209,158.931839 127.097038,163.631973 137.322418,168.793793 
	C129.183960,150.613281 129.583466,133.500687 136.791092,115.415184 
	C126.518715,120.627007 117.419212,125.243752 108.149704,129.946762 
	C107.000374,128.220215 106.028328,126.703468 105.000656,125.225410 
	C98.544083,115.939095 89.511406,113.102875 78.771706,115.102280 
	C69.339844,116.858208 61.875610,124.755470 60.271221,135.025955 
	C59.049751,142.845154 59.372269,150.648483 63.916649,158.426041 
M184.395279,166.311249 
	C200.690521,174.543915 217.203873,166.813538 220.302353,148.942047 
	C221.266663,143.380112 220.947449,137.230820 219.643143,131.722824 
	C217.491577,122.636909 211.285065,116.670769 201.853317,115.000175 
	C191.933456,113.243118 183.309067,115.752037 177.227432,124.284927 
	C168.536423,136.478958 171.794846,156.871857 184.395279,166.311249 
z"/>
<path fill="#FDFDFD" opacity="1.000000" stroke="none" 
	d="
M684.963501,83.996124 
	C687.791870,84.000328 690.125122,83.998451 692.458191,84.015877 
	C692.776001,84.018250 693.093079,84.117035 693.805908,84.238609 
	C693.805908,87.886307 693.805908,91.628906 693.805908,96.503807 
	C701.254761,89.833313 708.867065,85.405472 717.742371,83.504036 
	C730.486450,80.773773 743.010132,81.359123 754.786987,87.222832 
	C772.432129,96.008362 778.242615,111.852623 778.722107,130.161270 
	C779.180115,147.649170 778.872192,165.157150 778.900269,182.656296 
	C778.902832,184.246094 778.900635,185.835876 779.749451,187.633972 
	C783.457825,179.254272 787.166260,170.874573 791.025452,162.154007 
	C801.859924,168.269577 813.214600,171.670334 825.249573,172.384186 
	C830.535400,172.697708 835.880066,172.307816 841.178894,171.952896 
	C842.925659,171.835892 845.030457,171.260803 846.222229,170.115479 
	C847.746338,168.650787 849.382812,166.375320 849.335449,164.490387 
	C849.295959,162.922211 847.141357,160.478775 845.495117,160.043579 
	C839.086548,158.349319 832.508301,157.295303 825.991333,156.012787 
	C818.978455,154.632675 811.806946,153.791840 804.984863,151.770126 
	C793.707397,148.428055 784.910767,141.840439 782.146667,129.649643 
	C779.150696,116.436348 782.256287,104.801849 792.657288,95.710365 
	C802.034119,87.514175 813.408325,84.089012 825.553650,82.744240 
	C842.358215,80.883583 858.779968,82.606888 874.810974,87.973320 
	C876.539795,88.552025 878.213928,89.303429 879.887756,90.033485 
	C880.939270,90.492065 881.942871,91.060326 883.539795,91.868919 
	C879.501160,101.048241 875.526306,110.082550 871.366821,119.536423 
	C860.198547,113.647522 848.548584,110.606636 836.182068,111.080147 
	C832.406311,111.224716 828.398438,111.615540 824.997681,113.066971 
	C822.668640,114.061012 819.769409,117.090019 819.776733,119.199982 
	C819.783630,121.149254 823.038574,124.272713 825.352783,124.824303 
	C835.695068,127.289375 846.224915,128.957428 856.659424,131.051117 
	C859.908020,131.702972 863.132629,132.608414 866.261230,133.703430 
	C893.209534,143.135483 892.042175,173.638504 877.954712,186.863281 
	C868.802612,195.454834 857.630859,199.366714 845.544312,200.909988 
	C822.606995,203.838684 800.490112,200.807846 778.976990,190.525909 
	C778.976990,193.798447 778.976990,196.681091 778.976990,199.773209 
	C765.403259,199.773209 752.291199,199.773209 738.423462,199.773209 
	C740.819397,192.151031 743.163269,184.690567 745.509705,177.230942 
	C747.739868,170.140915 750.505371,163.161438 751.996948,155.919434 
	C752.839233,151.829819 752.668091,146.849777 751.063538,143.073990 
	C747.241272,134.079788 742.350098,125.534363 737.783875,116.863876 
	C735.088928,111.746773 732.358459,110.905434 727.189270,113.541695 
	C718.310181,118.070045 709.265015,122.339104 700.747131,127.475754 
	C697.497009,129.435638 694.347412,133.087906 693.132202,136.645325 
	C685.985657,157.566528 679.423767,178.687454 672.639038,199.821594 
	C666.924622,199.821594 661.307556,199.821594 655.433838,199.821594 
	C655.433838,161.243866 655.433838,122.848061 655.433838,83.996124 
	C665.226196,83.996124 674.847290,83.996124 684.963501,83.996124 
z"/>
<path fill="#FDFDFD" opacity="1.000000" stroke="none" 
	d="
M301.343689,200.863892 
	C278.533508,194.963181 266.148834,181.374847 265.134521,158.150345 
	C264.068359,133.738754 264.895874,109.244431 264.895874,84.390961 
	C277.760040,84.390961 291.125671,84.390961 304.847321,84.390961 
	C304.907623,85.671936 305.032990,87.108574 305.034149,88.545319 
	C305.047943,105.864784 305.005157,123.184410 305.077057,140.503586 
	C305.090820,143.817978 305.322327,147.163589 305.824677,150.437851 
	C307.369446,160.507080 312.517303,166.022873 320.993622,166.996887 
	C331.415741,168.194473 340.263031,163.612350 343.531250,154.464539 
	C345.119324,150.019562 345.869629,145.067963 345.948151,140.328293 
	C346.229523,123.346527 346.061737,106.357315 346.063751,89.370918 
	C346.063934,87.742714 346.063782,86.114502 346.063782,84.244347 
	C359.671814,84.244347 372.934784,84.244347 386.548950,84.244347 
	C386.548950,122.514725 386.548950,160.890228 386.548950,199.634460 
	C374.051453,199.634460 361.335876,199.634460 348.078613,199.634460 
	C348.078613,196.116653 348.078613,192.421860 348.078613,187.869019 
	C334.449005,200.973602 318.861237,203.794434 301.343689,200.863892 
z"/>
<path fill="#FDFDFD" opacity="1.000000" stroke="none" 
	d="
M953.845154,88.148788 
	C954.901428,86.362595 955.924255,84.592834 955.977478,82.794357 
	C956.547241,63.560619 966.447998,48.521378 983.478577,42.667465 
	C999.483765,37.165966 1015.424622,37.874989 1031.486938,44.932510 
	C1028.052246,54.762047 1024.787598,64.105225 1021.431580,73.710037 
	C1014.353394,70.982712 1007.282288,68.371078 1000.494019,73.373222 
	C995.813477,76.822174 995.622192,82.158821 995.859741,88.152504 
	C1000.264465,88.152504 1004.682678,88.152504 1009.100952,88.152504 
	C1013.574219,88.152504 1018.047424,88.152504 1022.857544,88.152504 
	C1022.857544,98.348274 1022.857544,108.257454 1022.857544,118.689873 
	C1014.397156,118.689873 1005.829712,118.689873 996.882690,118.689873 
	C996.882690,145.949478 996.882690,172.693878 996.882690,199.719269 
	C983.231873,199.719269 969.968323,199.719269 956.181641,199.719269 
	C956.181641,173.044937 956.181641,146.168930 956.181641,118.813461 
	C950.282715,118.813461 944.880981,118.813461 939.276978,118.813461 
	C939.276978,108.425926 939.276978,98.522202 939.276978,88.151901 
	C944.116150,88.151901 948.738831,88.151901 953.845154,88.148788 
z"/>
<path fill="#FDFDFD" opacity="1.000000" stroke="none" 
	d="
M1093.560425,118.378647 
	C1093.214722,108.268143 1093.214722,98.476013 1093.214722,88.377991 
	C1098.699585,88.377991 1103.979980,88.377991 1109.819580,88.377991 
	C1109.819580,78.221138 1109.819580,68.346031 1109.819580,58.261734 
	C1123.640991,58.261734 1136.904297,58.261734 1150.601685,58.261734 
	C1150.601685,68.027115 1150.601685,77.776665 1150.601685,88.048218 
	C1159.572632,88.048218 1168.135132,88.048218 1176.939575,88.048218 
	C1176.939575,98.481850 1176.939575,108.389915 1176.939575,118.652779 
	C1168.350342,118.652779 1159.911621,118.652779 1150.823364,118.652779 
	C1150.823364,125.579132 1150.823242,132.172791 1150.823486,138.766464 
	C1150.823730,144.432617 1150.790405,150.099030 1150.832275,155.764877 
	C1150.921143,167.787781 1158.091919,172.994202 1169.616821,169.382812 
	C1171.483032,168.798050 1173.264404,167.942474 1175.413452,167.080261 
	C1178.714111,176.397720 1181.968140,185.583496 1185.554932,195.708954 
	C1181.247437,197.236420 1177.211548,198.996536 1173.002930,200.094513 
	C1162.835938,202.746948 1152.508301,202.689590 1142.288940,200.522980 
	C1121.921387,196.204803 1110.649658,182.367188 1110.088989,161.237946 
	C1109.903442,154.243118 1110.011475,147.240295 1110.000732,140.241104 
	C1109.989990,133.270248 1109.998413,126.299377 1109.998413,118.697021 
	C1104.436523,118.697021 1099.171387,118.697021 1093.560425,118.378647 
z"/>
<path fill="#FDFDFD" opacity="1.000000" stroke="none" 
	d="
M1078.992310,117.000000 
	C1078.987061,144.489395 1078.982544,171.478806 1078.969238,198.468201 
	C1078.969116,198.781631 1078.854736,199.095016 1078.736084,199.704620 
	C1065.407227,199.704620 1052.027588,199.704620 1038.411987,199.704620 
	C1038.411987,161.199905 1038.411987,122.814735 1038.411987,84.213425 
	C1051.892944,84.213425 1065.154907,84.213425 1078.992310,84.213425 
	C1078.992310,94.977043 1078.992310,105.738518 1078.992310,117.000000 
z"/>
<path fill="#4FB747" opacity="1.000000" stroke="none" 
	d="
M899.187439,163.313629 
	C906.200806,154.516724 915.310974,152.451721 925.386597,154.445969 
	C937.543396,156.852097 945.125000,168.158859 943.413269,180.405624 
	C941.490662,194.161331 931.403198,202.571396 917.590759,201.934143 
	C905.087891,201.357300 894.836914,191.506500 895.114807,179.195419 
	C895.232605,173.972473 897.614868,168.800629 899.187439,163.313629 
z"/>
<path fill="#FCFCFC" opacity="1.000000" stroke="none" 
	d="
M1082.990356,44.197765 
	C1084.564941,56.636375 1079.371948,65.782326 1068.859741,69.581001 
	C1056.714355,73.969818 1042.772705,69.974342 1036.810303,60.396107 
	C1031.334595,51.599739 1033.422363,40.185863 1041.403564,33.389626 
	C1052.031494,24.339663 1078.151733,25.534643 1082.990356,44.197765 
z"/>
<path fill="#F7F7F7" opacity="1.000000" stroke="none" 
	d="
M734.407227,132.937775 
	C735.325134,139.335602 732.598145,143.708893 727.573547,144.527679 
	C723.650330,145.166977 719.051025,142.261612 717.900269,138.417130 
	C716.590515,134.041168 719.091797,129.023102 723.576843,127.676811 
	C728.429626,126.220146 731.911987,128.276962 734.407227,132.937775 
z"/>
<path fill="#020202" opacity="1.000000" stroke="none" 
	d="
M601.180298,165.338776 
	C583.640747,175.507523 565.243286,166.280624 563.218445,146.465805 
	C562.786438,142.238754 563.105957,137.790451 563.920654,133.607986 
	C566.202698,121.892677 574.893372,114.804497 586.686279,114.475525 
	C598.329285,114.150726 607.792297,120.904427 610.382385,132.472061 
	C613.120789,144.702667 612.245544,156.366928 601.180298,165.338776 
z"/>
<path fill="#020202" opacity="1.000000" stroke="none" 
	d="
M476.779053,163.836761 
	C468.590118,170.400482 459.770233,171.223663 450.766754,167.336441 
	C441.637360,163.394882 437.588501,155.560135 436.944397,145.950836 
	C436.690643,142.165024 436.665131,138.244217 437.353699,134.536804 
	C439.660614,122.115379 448.850952,114.482124 460.954498,114.470688 
	C472.931000,114.459373 482.063812,121.688263 484.422577,134.024628 
	C486.487732,144.825287 485.658630,155.278580 476.779053,163.836761 
z"/>
<path fill="#020202" opacity="1.000000" stroke="none" 
	d="
M63.716606,158.113846 
	C59.372269,150.648483 59.049751,142.845154 60.271221,135.025955 
	C61.875610,124.755470 69.339844,116.858208 78.771706,115.102280 
	C89.511406,113.102875 98.544083,115.939095 105.000656,125.225410 
	C106.028328,126.703468 107.000374,128.220215 108.149704,129.946762 
	C117.419212,125.243752 126.518715,120.627007 136.791092,115.415184 
	C129.583466,133.500687 129.183960,150.613281 137.322418,168.793793 
	C127.097038,163.631973 117.786209,158.931839 108.018822,154.001236 
	C102.842003,163.800522 95.217598,170.012299 83.513870,169.474548 
	C75.138565,169.089752 68.540031,165.494934 63.716606,158.113846 
z"/>
<path fill="#020202" opacity="1.000000" stroke="none" 
	d="
M184.069244,166.131500 
	C171.794846,156.871857 168.536423,136.478958 177.227432,124.284927 
	C183.309067,115.752037 191.933456,113.243118 201.853317,115.000175 
	C211.285065,116.670769 217.491577,122.636909 219.643143,131.722824 
	C220.947449,137.230820 221.266663,143.380112 220.302353,148.942047 
	C217.203873,166.813538 200.690521,174.543915 184.069244,166.131500 
z"/>
</svg>